# xmcd
#
# Track frame offsets:
#	182
#	18722
#	34680
#	50142
#	63020
#	76305
#	87265
#	101655
#	115735
#	130792
#	143950
#	159265
#
# Disc length: 2268 seconds
#
# Revision: 6
# Processed by: cddbd v1.5.1PL0 Copyright (c) Steve Scherf et al.
# Submitted via: audiograbber 1.83.01
#
DISCID=9708da0c
DTITLE=Various Artist - Hot Country for the 90's
DYEAR=1996
DGENRE=Country
TTITLE0=Vince Gill - Pocket Full of Gold
TTITLE1=Toby Keith - Should've Been a Cowboy
TTITLE2=Billy Ray Cyrus - Achy Breaky Heart
TTITLE3=Kathy Mattea - Lonesome Standard Time
TTITLE4=Sammy Kershaw - Cadillac Style
TTITLE5=Shania Twain - Dance with the one that Brought You
TTITLE6=The Kentucky Headhunters - Oh Lonesome Me
TTITLE7=Mark Chesnut - Bubba Shot the Jukebox
TTITLE8=John and Audrey Wiggins - Has Anybody Seen Amy
TTITLE9=Tracy Lawrence - Runnin' Behind
TTITLE10=Kim Richey - Just My Luck
TTITLE11=Davis Daniel - For Cryin' Out Loud
EXTD=YEAR: 1996 ID3G:   2
EXTT0=Vince Gill
EXTT1=Toby Keith
EXTT2=Billy Ray Cyrus
EXTT3=Kathy Mattea
EXTT4=Sammy Kershaw
EXTT5=Shania Twain
EXTT6=The Kentucky Headhunters
EXTT7=Mark Chesnut
EXTT8=John and Audrey Wiggins
EXTT9=Tracy Lawrence
EXTT10=Kim Richey
EXTT11=Davis Daniel
PLAYORDER=
